<?xml version="1.0" standalone="no"?><!DOCTYPE svg PUBLIC "-//W3C//DTD SVG 1.1//EN" "http://www.w3.org/Graphics/SVG/1.1/DTD/svg11.dtd"><svg t="1734967781040" class="icon" viewBox="0 0 1024 1024" version="1.1" xmlns="http://www.w3.org/2000/svg" p-id="625" xmlns:xlink="http://www.w3.org/1999/xlink" width="200" height="200"><path d="M512 1024C229.227355 1024 0 794.772645 0 512 0 229.227355 229.227355 0 512 0c282.772645 0 512 229.227355 512 512 0 282.772645-229.227355 512-512 512z m231.225806-710.193548h-148.645161v-33.032258c0-17.11071-18.002581-33.048774-35.11329-33.048775h-78.451613C463.921548 247.725419 445.935484 263.663484 445.935484 280.774194v33.032258l-150.726194-4.145549C278.115097 309.660903 264.258065 329.728 264.258065 346.83871c0 17.094194 15.921548 33.032258 33.032258 33.032258h33.032258v297.290322c0 34.204903 31.859613 66.064516 66.064516 66.064516h247.741935c34.204903 0 66.064516-31.859613 66.064516-66.064516V379.870968h33.032258c17.11071 0 33.032258-15.938065 33.032259-33.032258 0-17.11071-15.921548-33.032258-33.032259-33.032258z m-132.129032 363.354838c-17.11071 0-6.061419-1.172645-16.516129 0V379.870968c16.202323-0.974452-0.594581 0 16.516129 0h33.032258v297.290322c-16.070194-0.412903-15.921548 0-33.032258 0z m-99.096774 0c-5.549419 0 2.725161 0.957935-16.516129 0V379.870968c26.128516-0.280774 15.921548 0 33.032258 0 17.094194 0-5.863226 0.132129 16.516129 0v297.290322c-10.041806-0.611097-15.938065-0.016516-33.032258 0z m-82.580645 0c-17.11071 0-22.164645-1.057032-33.032258 0V379.870968c20.100129 0 6.276129 1.139613 23.651097 0.974451C437.132387 380.663742 431.533419 379.870968 445.935484 379.870968v297.290322c-11.792516-0.462452 0.594581 0-16.516129 0z" fill="#ef5767" p-id="626"></path></svg>