<?xml version="1.0" standalone="no"?><!DOCTYPE svg PUBLIC "-//W3C//DTD SVG 1.1//EN" "http://www.w3.org/Graphics/SVG/1.1/DTD/svg11.dtd"><svg t="1735046865065" class="icon" viewBox="0 0 1024 1024" version="1.1" xmlns="http://www.w3.org/2000/svg" p-id="625" xmlns:xlink="http://www.w3.org/1999/xlink" width="200" height="200"><path d="M511.1 4.4C263.6 4.4 63 208.3 63 459.3c0 93.5 23 171.1 75.5 252.6 103.7 172.8 305.5 308.5 373 308.5 67.4 0 268.8-136.6 373-308.5 51.6-81.5 75.5-159.2 75.5-252.6-0.8-251-201.4-454.9-448.9-454.9z m0 821.9C305 826.3 137.7 659 137.7 452.9c0-206.1 167.3-373.4 373.4-373.4 206.1 0 373.4 167.3 373.4 373.4 0 206.1-167.3 373.4-373.4 373.4z m0 0" fill="#ef5767" p-id="626" data-spm-anchor-id="a313x.manage_type_mylikes.0.i0.1fc23a81Ll8NEo" class="selected"></path><path d="M511.5 452.9m-373.4 0a373.4 373.4 0 1 0 746.8 0 373.4 373.4 0 1 0-746.8 0Z" fill="#FFFFFF" p-id="627"></path><path d="M707.2 279.8h-90.3v-37.6c0-8.3-6.7-15-15-15H421.2c-8.3 0-15 6.7-15 15v37.6h-90.3c-8.3 0-15 6.7-15 15s6.7 15 15 15h15.9l36.6 328.5c2.6 22.8 21.9 40.1 44.9 40.1h196.6c23 0 42.3-17.3 44.9-40.1l36.6-328.5h15.9c8.3 0 15-6.7 15.1-15-0.2-8.2-6.9-15-15.2-15z m-270.9-22.5h150.5v22.6H436.3v-22.6z m188.5 377.8c-0.9 7.6-7.3 13.4-15 13.4H413.2c-7.7 0-14.1-5.8-15-13.4L362 309.9h299l-36.2 325.2z m0 0" fill="#ef5767" p-id="628" data-spm-anchor-id="a313x.manage_type_mylikes.0.i1.1fc23a81Ll8NEo" class="selected"></path><path d="M556.6 598.1c8.3 0 15-6.7 15-15V362.2c0-8.3-6.7-15-15-15s-15 6.7-15 15v220.9c0 8.3 6.7 15 15 15z m-82.7 0c8.3 0 15-6.7 15-15V362.2c0-8.3-6.7-15-15-15s-15 6.7-15 15v220.9c-0.1 8.3 6.7 15 15 15z m0 0" fill="#ef5767" p-id="629" data-spm-anchor-id="a313x.manage_type_mylikes.0.i2.1fc23a81Ll8NEo" class="selected"></path></svg>